<?xml version="1.0" standalone="no"?>
<!DOCTYPE svg PUBLIC "-//W3C//DTD SVG 20010904//EN"
 "http://www.w3.org/TR/2001/REC-SVG-20010904/DTD/svg10.dtd">
<svg version="1.0" xmlns="http://www.w3.org/2000/svg"
 width="500.000000pt" height="500.000000pt" viewBox="0 0 500.000000 500.000000"
 preserveAspectRatio="xMidYMid meet">

<g transform="translate(0.000000,500.000000) scale(0.100000,-0.100000)"
fill="#000000" stroke="none">
<path d="M1760 4944 c-38 -62 -99 -217 -100 -251 0 -26 -1 -26 -88 -13 -161
23 -301 -45 -333 -162 -25 -93 10 -276 78 -412 l25 -49 -36 -76 c-19 -42 -42
-109 -51 -149 -20 -98 -18 -249 4 -335 15 -59 16 -75 5 -130 -8 -34 -19 -104
-26 -156 -15 -111 -14 -110 -154 -118 -109 -7 -170 10 -233 63 l-41 36 0 -39
c0 -56 49 -151 104 -201 59 -54 155 -100 240 -115 l64 -11 6 -50 c19 -173 18
-281 -4 -386 -12 -58 -25 -108 -29 -113 -9 -9 -103 8 -187 34 -102 32 -217
149 -304 312 -47 87 -67 100 -24 15 40 -79 101 -166 163 -232 l56 -59 -50 28
c-72 41 -99 69 -139 144 -37 71 -76 196 -76 246 0 16 -5 37 -11 45 -19 27 -1
-99 28 -189 60 -191 212 -344 418 -423 l57 -21 -24 -18 c-55 -43 -70 -43 -149
-6 -91 43 -210 143 -459 383 -102 99 -223 207 -269 242 -89 67 -199 128 -210
116 -3 -4 0 -9 7 -11 100 -36 252 -155 485 -381 116 -112 234 -222 263 -245
29 -22 52 -43 50 -44 -2 -2 -32 10 -67 26 -67 30 -108 68 -196 181 -86 109
-186 196 -278 243 -105 52 -275 94 -275 67 0 -5 12 -10 26 -10 50 0 149 -31
239 -75 102 -50 216 -143 270 -220 19 -28 51 -71 70 -97 l37 -48 -39 16 c-21
9 -64 30 -97 46 -92 47 -239 108 -244 103 -3 -3 26 -19 64 -36 112 -50 364
-172 361 -175 -2 -2 -38 8 -80 21 -43 14 -90 25 -105 25 l-27 0 25 -20 c40
-31 191 -107 287 -144 80 -31 183 -55 183 -43 0 5 -142 98 -185 121 -57 29
-17 16 115 -40 l133 -55 49 30 c46 29 96 40 111 24 4 -3 19 -7 34 -8 16 -1 84
-7 153 -15 69 -7 164 -10 213 -7 75 4 86 2 76 -10 -7 -8 -18 -12 -26 -9 -8 3
-12 2 -9 -3 3 -5 -32 -51 -79 -102 -80 -88 -88 -94 -133 -100 -44 -6 -45 -6
-9 -7 20 -1 37 -5 37 -10 0 -10 -64 -96 -133 -178 l-57 -68 -118 2 c-214 6
-378 41 -577 124 -33 14 -71 29 -85 33 -24 7 -24 7 -5 -9 20 -15 20 -15 0 -16
-34 0 -253 -98 -318 -142 -79 -53 -157 -117 -157 -129 0 -6 6 -6 16 -1 11 6
48 -2 112 -23 153 -50 244 -101 392 -219 l85 -67 -84 81 c-130 127 -262 213
-389 255 -43 14 -51 19 -41 31 14 17 74 55 92 58 65 12 117 32 112 44 -7 19
63 -38 111 -90 22 -24 58 -68 80 -98 49 -66 89 -103 51 -47 -32 46 -42 107
-33 194 7 68 30 137 43 131 5 -1 28 -11 53 -21 l45 -18 -3 -69 c-4 -81 17
-196 62 -335 34 -103 55 -213 36 -185 -6 8 -37 58 -70 110 -33 52 -71 109 -86
125 -30 35 -35 44 84 -156 72 -120 102 -178 102 -196 0 -3 -18 17 -40 43 -121
147 -345 280 -545 323 -98 22 -185 32 -185 22 0 -3 26 -24 57 -46 60 -42 229
-198 243 -225 5 -8 -50 13 -123 49 -195 94 -177 92 -177 19 0 -61 1 -63 49
-108 26 -25 73 -58 104 -73 l55 -28 -15 -31 c-36 -71 10 -176 102 -230 43 -25
46 -29 20 -24 -16 3 -50 8 -75 11 -25 4 -83 18 -130 31 -46 13 -90 24 -97 24
-10 0 -13 -21 -13 -79 l0 -80 58 -8 c31 -4 96 -7 145 -7 48 1 87 0 87 -2 0 -2
-21 -14 -47 -27 -43 -22 -58 -23 -146 -19 -78 3 -97 2 -97 -9 0 -11 30 -14
143 -16 78 -1 219 -11 312 -22 94 -12 175 -21 180 -21 6 0 4 -4 -4 -9 -7 -5
-38 -7 -67 -4 -53 5 -112 -3 -101 -14 3 -3 -18 -24 -48 -47 -30 -22 -135 -108
-234 -191 -152 -127 -180 -154 -180 -177 l-1 -28 440 0 c252 0 448 4 458 9 9
5 37 19 62 30 25 11 78 46 118 76 39 30 72 52 72 49 0 -4 15 5 34 20 19 14 40
26 46 26 6 0 8 5 5 11 -5 7 -14 4 -29 -8 -58 -52 -53 -39 11 27 l72 74 54 -51
c67 -63 116 -89 201 -104 52 -10 80 -10 132 0 37 6 67 11 68 9 1 -2 12 -20 24
-40 l21 -37 -44 -46 -45 -45 313 2 312 3 15 95 15 94 34 -43 c19 -23 43 -66
55 -94 20 -50 23 -52 61 -54 l40 -2 -35 11 c-29 9 -39 19 -54 56 -11 25 -32
60 -48 77 -32 37 -34 45 -14 45 8 0 17 4 20 8 3 4 -8 7 -23 6 -28 -2 -28 -1
-44 94 -9 53 -13 100 -8 105 4 4 27 -1 52 -12 24 -10 55 -22 69 -26 l25 -7
-22 16 c-12 9 -31 30 -43 46 l-21 29 48 59 c55 69 135 200 154 254 15 44 19
45 44 18 10 -11 24 -20 30 -20 19 0 32 -21 40 -60 6 -35 6 -35 -31 -35 -31 0
-41 -5 -53 -27 -14 -25 -14 -29 5 -55 22 -28 58 -36 95 -19 13 5 20 -5 36 -54
l20 -60 -32 0 c-59 0 -85 -60 -44 -101 21 -21 40 -21 83 -4 17 7 18 6 11 -11
-4 -10 -9 -83 -11 -162 -1 -93 -7 -148 -14 -158 -11 -12 44 -14 425 -14 l437
0 -32 56 -32 57 33 -7 c45 -9 107 -42 144 -76 20 -18 41 -28 63 -28 17 0 32 0
32 1 0 5 -21 68 -45 132 -23 66 -24 61 -4 -25 8 -35 8 -35 -10 -13 -10 12 -21
19 -25 16 -3 -3 -13 0 -23 8 -20 15 -22 21 35 -62 19 -27 19 -29 2 -9 -11 14
-64 69 -117 123 l-97 97 38 39 c41 42 133 97 144 86 4 -3 12 -21 19 -38 11
-32 11 -32 12 -5 1 31 -22 58 -49 58 -25 0 -119 -64 -152 -103 l-26 -31 -61
47 c-88 69 -75 42 17 -36 77 -65 236 -223 217 -215 -5 2 -32 15 -59 27 -66 31
-191 45 -275 31 -58 -10 -66 -9 -85 8 -22 21 -66 46 -66 38 0 -2 16 -14 35
-26 42 -26 44 -36 8 -43 -18 -3 -38 2 -58 16 l-30 21 19 -22 c11 -12 17 -24
15 -26 -11 -10 -160 -36 -170 -30 -7 4 -9 3 -5 -4 3 -6 2 -13 -3 -16 -10 -6
-87 115 -136 214 -22 44 -24 52 -9 39 39 -33 47 -29 11 5 -39 35 -42 56 -7 56
36 0 70 22 70 45 0 29 -37 75 -58 74 -12 0 -11 -3 6 -9 12 -5 27 -21 34 -34
16 -37 -5 -60 -49 -53 -23 4 -33 2 -33 -8 0 -20 -26 -25 -49 -9 -12 8 -25 13
-30 9 -5 -3 -17 5 -27 17 -16 22 -15 16 2 -26 6 -16 -19 -28 -42 -19 -8 3 -20
17 -25 30 -13 36 5 63 42 63 17 0 28 -4 24 -10 -3 -6 1 -7 9 -4 9 3 16 12 16
20 0 17 41 19 58 2 10 -10 16 -8 29 5 10 10 12 17 6 17 -7 0 -15 -5 -18 -11
-5 -7 -13 -5 -25 6 -11 10 -26 14 -38 11 -16 -5 -22 0 -31 25 -17 48 -14 62 9
56 11 -3 20 -1 20 4 0 5 15 9 34 9 51 0 66 9 65 39 -2 23 -2 24 -6 4 -5 -26
-48 -42 -66 -24 -15 15 -28 14 -24 -1 1 -8 -10 -14 -25 -16 -21 -3 -28 1 -28
13 0 12 -5 15 -16 11 -9 -4 -23 -1 -30 5 -9 8 -14 8 -14 1 0 -6 5 -14 12 -18
7 -5 3 -10 -12 -16 -30 -11 -60 15 -60 52 0 29 15 40 52 40 13 0 18 -5 15 -14
-4 -10 0 -12 14 -9 10 3 19 12 19 19 0 20 42 34 108 35 82 1 104 10 131 52 13
20 32 37 41 37 15 0 16 5 7 45 -12 52 -46 95 -76 95 -30 0 -33 14 -11 61 17
38 26 45 21 16 -1 -5 3 -6 9 -2 17 11 101 -77 183 -193 43 -62 83 -115 88
-118 23 -14 5 -21 -23 -9 -23 9 -38 10 -51 3 -12 -6 -29 -6 -50 2 -26 8 -29 8
-19 -2 8 -8 33 -12 64 -11 57 3 88 -10 88 -35 0 -10 7 -28 16 -40 9 -13 14
-32 11 -43 -3 -10 -1 -17 4 -13 13 8 10 36 -6 58 -8 11 -15 24 -15 29 0 19 22
-8 71 -91 29 -48 59 -97 67 -109 13 -22 13 -23 -9 -23 -16 0 -32 12 -48 35
-13 19 -32 35 -42 35 -12 0 -24 13 -33 33 -8 17 -15 26 -15 19 -2 -25 30 -72
48 -72 10 0 31 -16 45 -35 20 -26 35 -35 57 -35 l29 0 -34 69 c-20 38 -40 96
-45 130 -5 34 -13 65 -16 71 -3 5 15 18 40 29 43 19 121 91 229 210 47 52 47
54 14 34 -80 -47 -158 -67 -271 -67 -74 -1 -103 -4 -94 -11 27 -20 33 -38 83
-263 11 -50 -17 -6 -85 134 -39 79 -71 147 -71 149 0 3 33 5 73 5 42 0 104 9
147 21 129 35 291 146 303 208 5 22 15 31 51 45 25 10 46 21 46 26 0 4 -24 -1
-52 -13 -42 -17 -75 -21 -158 -22 -97 0 -110 2 -165 30 -79 38 -84 40 -58 17
22 -19 22 -20 3 -37 -11 -10 -27 -40 -36 -69 -9 -28 -30 -81 -46 -118 l-30
-67 -41 30 c-22 16 -46 29 -53 29 -7 0 -36 20 -64 45 -28 25 -63 47 -78 51
-53 12 -60 15 -66 30 -4 10 3 24 19 36 84 66 208 188 192 188 -4 0 -27 -13
-53 -30 -71 -45 -137 -64 -163 -48 -13 8 -21 23 -21 41 0 17 -10 38 -25 53
-24 24 -25 28 -14 65 12 38 11 42 -19 85 l-32 45 21 49 c12 28 23 50 24 50 2
0 66 -25 143 -55 185 -73 209 -76 296 -36 93 42 233 123 307 177 33 25 62 44
64 42 1 -2 -6 -42 -16 -91 -33 -156 -92 -274 -189 -377 l-55 -59 -50 10 c-27
5 -63 19 -78 30 -27 20 -28 20 -18 2 5 -11 17 -26 26 -33 24 -20 125 -23 199
-5 79 18 211 72 228 93 7 8 9 13 3 11 -5 -3 -39 -19 -75 -36 -70 -33 -178 -68
-186 -60 -3 3 17 33 45 68 93 115 158 268 176 414 6 42 15 66 40 95 17 21 38
52 45 69 14 34 30 41 30 13 0 -43 -22 -291 -29 -335 -8 -47 4 -79 13 -35 9 42
26 228 26 286 0 91 5 99 62 111 62 14 143 48 160 69 9 10 0 8 -29 -7 -47 -24
-144 -51 -182 -51 l-25 0 26 27 c14 16 47 64 73 108 26 44 56 91 68 105 12 14
1 6 -24 -18 -25 -24 -46 -49 -46 -56 0 -7 -14 -33 -31 -59 -35 -50 -60 -72
-49 -43 4 10 7 26 7 36 0 10 16 28 36 40 19 12 33 24 31 27 -3 2 -24 -9 -48
-24 -33 -21 -45 -35 -47 -58 -2 -16 -17 -63 -34 -103 -52 -125 -153 -211 -379
-322 -93 -46 -132 -60 -166 -60 -53 0 -167 37 -261 84 -37 18 -85 41 -107 50
-36 14 -38 14 -18 0 18 -13 21 -20 12 -36 -6 -11 -27 -70 -48 -132 l-37 -113
-48 56 c-111 130 -256 231 -394 276 -43 14 -52 20 -46 34 14 33 54 187 54 210
0 13 18 48 40 77 41 54 110 173 110 190 0 5 -21 -29 -48 -75 -54 -97 -158
-213 -246 -275 -105 -75 -114 -72 -30 10 79 77 164 194 218 301 14 29 40 69
58 90 18 21 -9 -3 -59 -53 -91 -91 -187 -161 -297 -218 -46 -24 -67 -43 -98
-91 -90 -138 -190 -388 -225 -563 -11 -55 -17 -137 -17 -222 -1 -115 3 -145
23 -207 13 -39 31 -79 41 -88 15 -14 14 -7 -7 45 -13 34 -22 65 -19 68 10 9
102 -85 151 -153 42 -58 76 -135 89 -200 3 -16 16 -59 28 -95 l21 -66 -23
-102 c-13 -56 -28 -102 -34 -102 -5 0 -37 27 -69 61 -59 60 -59 61 -54 107 4
31 3 40 -3 27 -5 -11 -9 -36 -9 -55 -1 -28 6 -40 34 -63 21 -17 35 -37 35 -50
0 -13 5 -28 11 -34 15 -15 -9 -193 -26 -193 -11 0 -60 49 -109 110 -28 35 -46
84 -48 135 -1 45 -18 44 -18 -1 0 -37 -115 -70 -193 -55 -29 5 -45 5 -40 0 5
-5 29 -13 54 -18 l44 -9 -46 -1 c-85 -2 -145 24 -213 92 -33 34 -73 78 -87 97
l-26 35 -54 -29 c-64 -33 -159 -70 -165 -63 -5 5 218 127 234 127 6 0 33 -32
59 -72 26 -39 64 -83 83 -97 32 -24 31 -21 -13 28 -27 30 -55 67 -63 83 -14
27 -13 28 48 91 56 56 117 140 90 123 -6 -3 -12 -3 -15 1 -2 5 -3 3 -1 -3 4
-17 -26 -55 -37 -48 -5 3 -7 10 -3 15 3 5 10 6 16 3 7 -5 9 -2 6 8 -7 18 7 43
23 43 23 0 109 200 109 253 0 23 -10 8 -16 -24 -3 -16 -9 -33 -15 -40 -5 -6
-7 -13 -4 -16 6 -5 -61 -158 -69 -158 -3 0 5 24 18 53 13 28 26 69 30 91 9 46
47 127 57 121 6 -5 13 21 24 93 4 23 2 32 -9 32 -7 0 -17 -7 -20 -16 -9 -24
-7 -36 5 -28 7 4 6 -3 -2 -17 -7 -13 -18 -35 -26 -49 l-13 -25 0 28 c0 16 4
26 8 23 5 -3 9 7 9 22 1 44 20 82 43 82 11 0 38 -7 60 -16 33 -13 47 -28 71
-73 17 -31 27 -47 23 -36 -42 117 -54 163 -64 239 -18 134 4 290 61 440 10 28
19 56 19 61 -1 19 -112 -161 -160 -260 -56 -113 -69 -163 -70 -253 l0 -62 -42
21 c-104 53 -128 93 -128 210 0 66 -13 55 -34 -27 -15 -57 -22 -164 -11 -164
2 0 20 7 38 16 34 16 34 16 80 -19 26 -20 61 -41 80 -47 l32 -12 -26 -57 c-18
-37 -29 -81 -33 -131 -3 -41 -12 -95 -21 -120 -8 -26 -13 -34 -11 -18 4 35 -2
36 -14 3 -5 -14 -17 -25 -27 -25 -15 0 -16 2 -3 10 28 17 -1 24 -33 7 -26 -14
-43 -15 -95 -8 -83 13 -134 30 -126 43 4 7 2 8 -4 4 -13 -8 -52 10 -52 24 0
14 133 101 244 161 53 28 95 53 93 56 -10 9 -296 -144 -362 -193 l-30 -23 -17
28 -16 29 107 110 c58 60 121 117 139 127 28 13 33 20 27 38 -14 44 -17 186
-6 265 6 44 26 129 45 188 20 60 34 110 32 112 -2 2 -16 -30 -31 -70 -15 -40
-53 -127 -85 -193 -63 -130 -100 -236 -101 -294 -1 -59 -17 -6 -18 59 -2 139
96 360 239 540 50 63 108 138 130 165 22 28 86 95 142 151 99 96 106 102 180
124 43 13 76 25 74 27 -2 3 -35 -5 -73 -17 -91 -28 -229 -39 -398 -30 -172 9
-288 36 -410 96 -92 45 -191 111 -181 121 3 3 12 0 20 -6 37 -31 213 -84 331
-100 105 -15 375 -13 460 3 49 10 59 14 35 14 -19 1 -54 -3 -77 -7 -24 -5 -43
-5 -43 -1 0 5 13 37 28 72 43 95 136 348 178 481 23 74 40 116 48 113 6 -2 35
-13 64 -22 28 -10 52 -24 52 -31 0 -7 5 -13 10 -13 6 0 10 4 10 9 0 4 28 2 63
-6 127 -30 347 -2 347 43 0 7 -24 17 -57 24 -124 23 -217 61 -280 114 l-31 26
23 82 c12 46 28 103 34 128 l12 45 45 -4 c58 -4 109 6 129 25 13 14 13 18 0
38 -15 23 -15 24 22 30 67 11 120 42 150 87 24 36 28 53 28 108 -1 76 -21 124
-64 149 -16 9 -33 27 -38 41 -8 25 -5 28 112 85 105 52 130 69 201 140 63 62
91 100 124 165 23 47 44 96 46 110 2 15 9 74 16 134 l12 107 81 0 c159 0 393
-70 557 -167 77 -45 198 -151 247 -217 12 -16 24 -26 27 -23 12 12 -17 63 -62
110 -164 172 -456 293 -776 322 l-77 7 -6 67 c-14 138 -62 342 -82 348 -7 3
-5 -21 8 -69 53 -202 69 -482 35 -607 -17 -62 -55 -155 -62 -149 -1 2 6 28 16
58 32 94 50 262 39 365 -16 161 -30 239 -57 323 -24 76 -28 83 -51 80 -20 -2
-28 -13 -44 -61 -10 -32 -21 -56 -23 -54 -2 2 5 29 15 60 34 97 0 67 -43 -38
l-38 -95 -37 58 c-44 68 -99 132 -113 132 -5 0 11 -23 37 -52 50 -55 114 -179
139 -269 40 -137 35 -323 -10 -411 -45 -89 -158 -221 -223 -262 -21 -13 -82
-43 -136 -66 -54 -23 -107 -47 -119 -53 -35 -20 -130 -93 -155 -121 -14 -14
-30 -26 -37 -26 -16 0 -69 134 -100 255 -23 89 -54 251 -54 282 0 6 47 30 105
52 124 48 167 74 219 131 73 81 116 223 116 382 0 109 -14 158 -43 157 l-22 0
23 -11 c21 -10 22 -17 22 -118 0 -59 -4 -132 -10 -161 -16 -86 -59 -194 -93
-234 l-32 -36 -50 48 c-28 26 -90 71 -137 98 -66 38 -87 55 -88 71 -1 47 57
198 128 337 2 4 0 7 -5 7 -22 0 -91 -155 -129 -290 -49 -171 -41 -417 21 -705
l6 -30 -15 25 -16 25 5 -35 5 -35 -15 40 c-59 147 -89 461 -61 621 24 136 73
268 127 346 21 28 23 38 11 38 -4 0 -23 -25 -42 -56z m-190 -332 l64 -17 2
-160 1 -160 -66 -33 c-37 -18 -90 -51 -119 -72 -29 -22 -54 -40 -56 -40 -9 0
-64 157 -76 213 -16 81 -14 200 5 237 26 50 124 63 245 32z m-269 -30 c-6 -12
-11 -61 -11 -110 0 -144 62 -327 172 -509 61 -101 68 -123 14 -42 -38 56 -61
51 -26 -6 12 -19 19 -35 16 -35 -9 0 -105 165 -136 236 -89 198 -105 383 -41
471 19 26 27 22 12 -5z m489 -68 c55 -36 140 -112 140 -125 0 -3 -43 -23 -97
-43 -76 -29 -98 -34 -104 -24 -11 16 -12 228 -1 228 4 0 32 -16 62 -36z m-122
-361 c12 -60 35 -148 52 -198 16 -49 30 -91 30 -92 0 -2 -13 -3 -29 -3 -31 0
-81 -47 -81 -76 0 -20 -13 -17 -37 9 -35 38 -147 210 -173 266 l-25 53 40 34
c35 29 179 113 196 114 3 0 16 -48 27 -107z m-303 -143 c10 -30 119 -193 161
-240 37 -41 37 -42 21 -70 -52 -87 23 -264 121 -286 50 -11 54 -13 47 -34 -8
-26 11 -50 39 -50 16 0 28 -12 43 -42 27 -57 121 -174 177 -220 87 -73 185
-120 294 -143 56 -11 56 -11 32 -25 -40 -22 -185 -25 -281 -5 -214 43 -415
151 -570 306 -81 81 -123 149 -158 254 -59 181 -50 336 31 528 22 51 33 58 43
27z m875 -121 c28 -21 49 -47 62 -78 14 -32 30 -51 49 -60 57 -25 77 -136 39
-219 -23 -51 -79 -81 -151 -82 -48 0 -77 19 -64 40 4 6 1 11 -6 9 -34 -4 -42
0 -29 16 19 23 9 25 -25 4 -17 -11 -23 -19 -15 -19 21 0 86 -68 100 -104 14
-38 2 -46 -72 -46 -57 0 -58 0 -58 29 0 16 -6 31 -12 34 -7 3 7 3 32 1 51 -5
48 -3 -32 22 -32 9 -58 19 -58 22 0 12 34 42 47 42 7 0 13 5 13 11 0 7 16 31
35 55 26 32 35 52 35 80 0 38 -22 74 -47 74 -14 0 -16 10 -7 34 9 24 59 20 90
-7 22 -19 26 -31 27 -75 1 -61 17 -68 41 -18 35 74 10 157 -59 197 -37 22 -43
37 -23 57 19 19 42 14 88 -19z m-458 -56 c21 -19 23 -33 4 -33 -21 0 -63 -37
-80 -72 -19 -37 -21 -91 -4 -121 10 -20 12 -18 24 24 16 53 50 89 89 92 32 2
61 -32 35 -41 -8 -3 -27 -18 -42 -33 -32 -32 -36 -67 -11 -107 9 -15 17 -28
17 -28 1 -1 16 -5 34 -9 l34 -7 -27 41 -27 40 25 43 c41 71 86 128 100 128 13
0 117 -152 117 -173 0 -6 -9 -18 -20 -25 -11 -7 -20 -19 -20 -26 0 -8 -17 -29
-37 -47 -21 -17 -31 -28 -23 -23 13 7 13 5 2 -8 -11 -14 -10 -17 9 -20 16 -2
26 -15 36 -43 18 -51 11 -85 -29 -143 l-33 -47 -8 60 c-4 33 -11 83 -15 110
l-8 50 -17 -32 c-9 -18 -17 -41 -17 -53 0 -12 -4 -18 -10 -15 -24 15 -8 72 35
124 17 20 17 23 3 18 -12 -4 -15 -2 -11 9 5 14 -13 21 -19 6 -4 -11 -144 -122
-153 -122 -12 0 2 56 28 110 l24 49 -29 21 -29 22 15 -31 c21 -40 7 -47 -44
-21 -45 23 -77 76 -91 149 l-8 46 3 -57 c3 -73 45 -145 99 -172 44 -21 43 -26
-5 -28 -83 -3 -148 79 -148 187 0 50 4 63 27 87 15 15 32 28 39 28 7 0 23 19
36 42 35 63 92 86 130 51z m451 -116 c0 -21 -6 -44 -13 -50 -8 -7 -10 -7 -7
-1 12 21 -14 85 -39 96 -31 15 -30 24 4 36 24 8 29 6 41 -16 7 -14 14 -43 14
-65z m-428 46 c3 -10 1 -19 -6 -22 -6 -2 -30 -20 -52 -40 l-40 -36 6 35 c13
62 75 105 92 63z m305 -113 c0 -33 -14 -70 -23 -60 -2 3 -18 29 -37 58 -38 62
-30 79 26 53 29 -13 34 -20 34 -51z m-298 -32 c-7 -7 -12 -8 -12 -2 0 14 12
26 19 19 2 -3 -1 -11 -7 -17z m-469 -323 c24 -37 25 -44 15 -83 -8 -31 -19
-47 -39 -57 -42 -22 -47 -19 -43 33 l3 47 -9 -48 c-10 -55 -20 -73 -20 -35 0
28 27 194 36 217 3 11 8 8 18 -10 7 -13 24 -42 39 -64z m554 -67 c19 -32 40
-58 48 -58 8 0 27 18 41 40 28 42 41 52 29 23 -4 -10 -15 -47 -24 -82 l-17
-64 -67 74 c-66 72 -67 74 -66 129 1 51 1 53 11 25 6 -16 26 -55 45 -87z
m-509 -25 c-18 -22 -28 -14 -16 12 8 18 14 22 19 13 4 -7 3 -18 -3 -25z m355
-360 c-19 -59 -44 -138 -54 -175 -21 -72 -102 -283 -139 -360 l-22 -48 -122 0
c-150 0 -201 7 -185 26 6 7 8 18 4 23 -3 6 1 36 9 68 8 32 20 96 25 143 6 47
13 99 16 116 l5 32 37 -19 c21 -11 46 -19 56 -19 15 0 5 -26 -62 -157 -45 -86
-79 -158 -77 -160 6 -6 68 100 124 213 l50 100 53 12 c139 32 242 148 256 287
l6 54 27 -14 28 -14 -35 -108z m-306 -7 c-25 -53 -81 -106 -129 -122 -28 -8
-29 -4 -22 60 7 54 8 56 43 66 20 5 56 22 81 38 25 16 46 25 48 20 2 -4 -8
-32 -21 -62z m-165 -83 c-7 -120 -21 -132 -21 -20 -1 75 2 97 12 97 11 0 13
-17 9 -77z m389 54 c-10 -9 -11 -8 -5 6 3 10 9 15 12 12 3 -3 0 -11 -7 -18z
m-985 -592 c74 -23 134 -50 180 -80 62 -42 66 -45 34 -39 -46 9 -163 55 -248
98 -66 34 -121 70 -92 61 8 -2 65 -20 126 -40z m1672 -85 c-24 -42 -32 -47
-44 -29 -6 11 42 69 58 69 5 0 -2 -18 -14 -40z m-55 -86 c-11 -28 -30 -15 -25
18 4 28 6 30 18 14 7 -10 10 -24 7 -32z m-79 -40 c17 -44 -44 -71 -68 -31 -9
15 -7 22 12 37 25 20 47 18 56 -6z m-139 -64 c3 -5 15 -10 26 -10 15 0 20 -6
17 -22 -2 -18 -16 -26 -62 -40 -33 -10 -64 -17 -68 -16 -5 2 5 25 21 51 29 45
53 58 66 37z m213 -110 c-20 -64 -27 -75 -53 -83 -48 -15 -53 -24 -60 -100 -9
-84 -16 -102 -61 -140 -18 -15 -35 -35 -38 -45 -3 -10 -19 -25 -34 -34 l-29
-17 43 82 c43 83 83 194 104 290 11 48 17 55 79 99 39 27 67 41 69 34 1 -7 -8
-45 -20 -86z m-183 5 c-51 -46 -159 -109 -175 -103 -5 2 1 24 12 51 17 38 25
47 47 48 14 0 55 11 91 24 36 12 67 23 70 24 3 0 -17 -20 -45 -44z m-1595 -89
c0 -7 -7 -33 -15 -57 -9 -24 -17 -74 -18 -112 l-2 -67 -20 27 c-10 16 -46 56
-78 90 l-59 62 34 17 c30 16 132 52 151 53 4 1 7 -5 7 -13z m1451 -78 c-27
-40 -68 -91 -91 -113 l-41 -40 19 50 c54 135 50 131 100 152 26 12 50 21 55
22 4 1 -15 -32 -42 -71z m355 28 c105 -36 142 -54 208 -99 75 -49 206 -181
242 -242 14 -25 29 -45 32 -45 6 0 29 34 69 104 13 21 13 21 12 -4 0 -42 -66
-150 -91 -150 -9 0 -21 -7 -26 -16 -7 -12 -16 -3 -45 43 -78 126 -186 222
-329 294 -71 36 -78 42 -78 69 0 24 -6 33 -32 44 -41 17 -51 11 -46 -24 3 -21
0 -30 -14 -33 -15 -4 -18 1 -18 32 0 61 11 63 116 27z m-1514 -50 l87 -47 82
11 c44 6 84 9 87 6 3 -3 -3 -6 -14 -7 -10 -1 19 -13 66 -29 76 -24 86 -25 98
-12 21 27 14 31 -65 35 l-78 3 88 2 c49 1 87 -1 85 -5 -1 -5 -24 -51 -50 -105
-86 -178 -113 -320 -74 -396 24 -47 46 -42 46 11 0 54 32 169 70 253 16 35 31
64 33 64 2 0 1 -19 -4 -42 -10 -51 -10 -203 0 -238 6 -23 0 -29 -89 -79 -101
-57 -159 -99 -200 -144 l-26 -29 43 -43 c38 -38 43 -47 43 -89 0 -58 -17 -92
-68 -138 -41 -37 -82 -63 -82 -53 0 4 22 27 48 53 77 75 84 152 21 222 l-30
32 -23 -21 c-24 -22 -36 -19 -36 10 0 42 -32 59 -169 89 -74 17 -139 29 -145
26 -6 -2 -2 -7 9 -11 143 -50 252 -111 294 -166 33 -43 33 -45 29 -124 -2 -44
-7 -86 -11 -93 -11 -17 -89 24 -113 59 -24 37 -110 113 -197 173 -56 40 -160
93 -312 160 -102 44 -125 57 -172 95 -61 47 -72 74 -16 36 21 -14 67 -34 103
-44 92 -27 287 -62 341 -61 57 0 209 -25 268 -45 25 -8 48 -15 51 -15 13 0 5
34 -12 60 -61 90 -40 389 37 527 l23 42 -60 36 c-33 20 -62 34 -64 32 -10 -9
-24 -154 -24 -246 0 -57 -2 -102 -5 -99 -13 13 -47 204 -52 296 l-6 102 29 -3
c16 -2 68 -25 116 -51z m88 -6 c20 -6 21 -8 5 -8 -11 0 -31 4 -45 8 -20 6 -21
8 -5 8 11 0 31 -4 45 -8z m83 -17 c-7 -2 -21 -2 -30 0 -10 3 -4 5 12 5 17 0
24 -2 18 -5z m714 -139 c-18 -56 -49 -96 -62 -82 -4 4 73 148 79 148 2 0 -5
-30 -17 -66z m307 4 c-4 -7 -20 -32 -36 -55 -16 -24 -24 -43 -18 -43 6 0 -5
-14 -24 -31 -20 -17 -39 -45 -44 -62 -5 -18 -27 -60 -48 -93 -69 -109 -65
-107 -58 -29 7 90 32 250 45 283 l10 26 36 -37 c19 -20 43 -37 54 -37 10 0 32
20 50 45 30 42 50 61 33 33z m285 -14 c12 -11 -11 -14 -50 -7 -39 6 -41 8 -19
14 23 6 58 2 69 -7z m77 -33 c17 -10 31 -26 31 -34 0 -9 -4 -14 -9 -11 -5 3
-5 10 -2 16 4 7 2 8 -5 4 -10 -6 -81 29 -81 40 0 11 38 2 66 -15z m469 -17
c-4 -24 -3 -34 4 -29 6 3 11 14 12 23 0 11 3 12 6 4 2 -6 -8 -27 -23 -45 -19
-22 -25 -26 -21 -12 3 11 9 37 13 58 3 20 8 37 11 37 3 0 2 -16 -2 -36z m-550
15 c60 -15 165 -111 199 -182 21 -41 27 -70 29 -142 3 -73 8 -97 26 -128 33
-53 25 -107 -33 -221 -43 -86 -126 -209 -135 -201 -2 3 13 42 33 89 20 46 36
92 36 100 0 9 11 33 25 54 25 39 55 114 55 140 0 9 -20 -25 -44 -74 -63 -127
-90 -158 -66 -75 16 56 4 47 -16 -11 -18 -56 -106 -172 -233 -308 -62 -67 -70
-72 -71 -50 0 14 -9 52 -20 84 -11 33 -20 60 -20 62 0 1 31 27 70 57 76 59
141 118 180 163 14 16 -2 4 -35 -27 -57 -53 -206 -169 -217 -169 -3 0 -11 19
-18 43 -27 90 -72 160 -160 248 -105 106 -114 132 -73 213 51 101 128 206 151
206 5 0 14 -18 21 -39 18 -63 50 -81 135 -79 l71 1 -65 7 c-36 3 -72 10 -81
14 -20 9 -43 86 -37 120 l5 25 -46 -25 -46 -26 32 31 c18 17 45 34 60 37 16 4
37 14 48 23 62 53 139 65 240 40z m181 -73 l39 -34 -30 5 c-34 6 -65 30 -65
50 0 21 14 16 56 -21z m-799 -98 c0 -68 5 -145 11 -173 6 -27 9 -51 8 -52 -1
-1 -24 4 -50 12 -27 8 -52 12 -57 9 -12 -7 -21 36 -17 86 3 41 5 44 46 59 28
10 42 21 42 33 0 17 -4 16 -37 -7 -21 -14 -41 -25 -44 -25 -9 0 7 69 27 119
13 32 39 57 64 60 3 1 6 -54 7 -121z m-1587 102 c13 -8 13 -10 -2 -10 -9 0
-20 5 -23 10 -8 13 5 13 25 0z m2420 -72 c0 -22 -15 -16 -30 12 -8 15 -7 17
10 13 11 -3 20 -14 20 -25z m416 -3 c14 -21 15 -31 6 -50 -10 -21 -9 -25 5
-25 46 0 69 -64 35 -98 -10 -10 -17 -32 -17 -51 0 -65 -55 -68 -83 -5 -8 16
-28 36 -45 44 -60 28 -61 149 -2 137 22 -4 25 -1 25 24 0 49 49 64 76 24z
m-368 -27 c25 -38 23 -43 -11 -27 -17 8 -24 18 -23 35 1 32 10 30 34 -8z
m-1181 -110 c-29 -18 -40 -9 -33 30 3 20 6 46 6 57 1 11 10 -2 20 -30 15 -38
17 -51 7 -57z m1322 71 c11 -12 25 -35 30 -51 9 -26 8 -29 -5 -24 -9 3 -22 6
-30 6 -10 0 -13 7 -8 25 5 18 2 25 -9 25 -20 0 -26 -19 -16 -47 11 -29 -1 -29
-35 -2 -27 22 -34 57 -14 77 19 19 65 14 87 -9z m-145 -20 c-10 -16 -24 -9
-24 12 0 18 2 19 15 9 8 -7 12 -16 9 -21z m546 17 c0 -2 -23 -23 -51 -47 l-51
-42 4 28 c2 22 12 31 48 45 25 10 46 18 48 19 1 1 2 -1 2 -3z m-544 -72 c-6
-19 -12 -28 -14 -20 -3 13 14 56 22 56 2 0 -2 -16 -8 -36z m23 -25 c-18 -11
-19 -8 -12 20 5 21 7 21 16 6 6 -12 5 -20 -4 -26z m905 6 c28 -8 88 -15 137
-15 l88 0 -11 -31 c-23 -65 -190 -166 -323 -194 -38 -8 -71 -12 -73 -10 -7 7
82 221 101 243 24 26 19 26 81 7z m-739 -18 c21 -18 25 -28 20 -50 -9 -33 -16
-34 -51 -4 -22 19 -26 29 -20 50 8 33 17 34 51 4z m-97 -6 c11 -7 11 -9 -2
-14 -19 -8 -21 -38 -3 -57 10 -12 9 -12 -6 0 -12 9 -17 22 -14 37 6 34 -11 39
-25 7 -11 -22 -9 -32 10 -68 20 -37 20 -39 2 -17 -53 62 -22 151 38 112z m203
-58 c5 -15 8 -36 6 -47 -3 -15 -5 -12 -6 9 -1 22 -4 26 -13 17 -7 -7 -20 -12
-31 -12 -11 0 -15 -4 -11 -12 4 -7 3 -8 -4 -4 -20 12 -13 26 12 26 13 0 26 7
30 15 3 8 2 14 -2 14 -26 -4 -40 4 -44 25 -5 25 -4 25 24 10 16 -8 33 -27 39
-41z m-304 10 c-3 -10 -5 -4 -5 12 0 17 2 24 5 18 2 -7 2 -21 0 -30z m178 -33
c3 -5 -1 -10 -10 -10 -9 0 -13 5 -10 10 3 6 8 10 10 10 2 0 7 -4 10 -10z m-40
-10 c3 -6 -1 -7 -9 -4 -18 7 -21 14 -7 14 6 0 13 -4 16 -10z m365 0 c13 -9 13
-10 0 -9 -8 0 -24 4 -35 9 l-20 9 20 0 c11 0 27 -4 35 -9z m-213 -16 c-3 -3
-12 -4 -19 -1 -8 3 -5 6 6 6 11 1 17 -2 13 -5z m76 -20 c-3 -8 -9 -14 -13 -14
-13 0 -22 19 -15 30 9 14 34 0 28 -16z m-46 -15 c15 -5 39 -21 53 -33 14 -13
39 -28 55 -33 20 -6 36 -22 48 -45 19 -39 15 -64 -13 -71 -10 -3 -20 -15 -22
-28 -4 -34 -43 -49 -123 -49 -79 0 -119 15 -123 48 -2 16 -10 22 -27 22 -33 0
-55 26 -55 65 0 27 5 35 29 45 19 8 31 21 34 40 9 43 82 63 144 39z m358 -55
c35 -23 31 -35 -7 -27 -30 5 -67 36 -68 55 0 9 42 -6 75 -28z m-2640 -114 c22
-16 39 -34 38 -39 -2 -6 3 -8 10 -5 7 2 35 -18 62 -46 l50 -51 -65 24 c-36 14
-85 28 -110 32 -46 8 -70 20 -70 37 0 6 7 5 16 -2 12 -11 18 -11 30 2 14 13
11 15 -22 14 -24 -1 -39 4 -42 13 -3 9 0 11 8 6 9 -5 11 -4 6 4 -4 6 -11 9
-16 6 -4 -3 -26 20 -49 50 l-41 55 77 -35 c43 -20 96 -49 118 -65z m2986 51
c-45 -56 -137 -139 -181 -161 l-37 -19 -22 78 c-11 43 -21 81 -21 85 0 3 33 6
73 6 49 1 92 8 137 24 87 31 86 31 51 -13z m-3112 -87 c18 -24 30 -44 26 -44
-29 0 -115 103 -115 137 1 20 31 -11 89 -93z m519 -33 c-28 -23 -34 -20 -18 8
6 12 16 18 22 15 7 -4 8 -3 4 4 -4 7 -4 18 1 25 5 8 9 5 11 -11 2 -14 -5 -29
-20 -41z m1802 -37 c0 -2 -7 -4 -15 -4 -8 0 -15 4 -15 10 0 5 7 7 15 4 8 -4
15 -8 15 -10z m-1323 -30 c-3 -3 -12 -4 -19 -1 -8 3 -5 6 6 6 11 1 17 -2 13
-5z m-127 -13 c0 -6 -5 -13 -12 -17 -6 -4 -8 -3 -4 4 3 5 0 13 -6 15 -8 3 -6
6 5 6 9 1 17 -3 17 -8z m43 2 c-7 -2 -19 -2 -25 0 -7 3 -2 5 12 5 14 0 19 -2
13 -5z m67 -13 c-8 -5 -22 -9 -30 -9 -10 0 -8 3 5 9 27 12 43 12 25 0z m-51
-13 c-10 -7 -142 -38 -146 -34 -5 6 140 46 146 41 2 -2 2 -5 0 -7z m17 -62
c-30 -39 -31 -39 -131 -21 l-70 12 89 18 c48 10 98 21 110 26 31 12 32 4 2
-35z m-179 19 c-3 -3 -12 -4 -19 -1 -8 3 -5 6 6 6 11 1 17 -2 13 -5z m-760
-20 c-3 -3 -12 -4 -19 -1 -8 3 -5 6 6 6 11 1 17 -2 13 -5z m-155 -17 c-12 -7
-20 -15 -18 -18 3 -3 -4 -5 -14 -5 -11 0 -20 1 -20 3 0 5 55 32 65 32 6 0 0
-5 -13 -12z m851 -14 c-7 -2 -21 -2 -30 0 -10 3 -4 5 12 5 17 0 24 -2 18 -5z
m60 -10 c-7 -2 -19 -2 -25 0 -7 3 -2 5 12 5 14 0 19 -2 13 -5z m198 -16 c-6
-6 -18 -12 -27 -13 -14 -2 -14 0 1 17 10 10 22 16 27 13 6 -4 6 -10 -1 -17z
m-144 7 c-3 -3 -12 -4 -19 -1 -8 3 -5 6 6 6 11 1 17 -2 13 -5z m58 -14 c-28
-12 -47 -12 -40 0 3 6 18 10 33 9 24 0 25 -1 7 -9z m-212 -37 c-13 -2 -35 -2
-50 0 -16 2 -5 4 22 4 28 0 40 -2 28 -4z m137 -8 c0 -2 -23 -16 -51 -30 -45
-23 -54 -25 -87 -14 -57 18 -61 29 -11 30 24 0 64 4 89 8 25 5 48 9 53 10 4 0
7 -1 7 -4z m-140 -68 c10 -3 3 -10 -22 -21 -21 -9 -39 -16 -40 -16 -2 0 -3 15
-4 34 0 34 0 34 25 22 14 -7 33 -16 41 -19z m-100 -135 c0 -5 15 -33 33 -63
l33 -54 -28 -23 c-32 -26 -30 -28 -47 62 -14 73 -14 86 -1 86 6 0 10 -4 10 -8z"/>
<path d="M2304 3645 c-3 -20 -22 -57 -40 -81 -34 -44 -34 -44 -10 -44 14 0 39
12 56 26 28 24 31 31 28 77 -4 61 -24 74 -34 22z m9 -73 c-28 -37 -51 -42 -26
-6 11 16 24 40 29 54 l8 25 4 -24 c2 -13 -5 -35 -15 -49z"/>
<path d="M1910 3654 c-18 -25 -30 -48 -27 -51 3 -3 17 14 31 36 15 23 30 41
35 41 10 0 71 -91 71 -106 0 -11 -62 -74 -72 -74 -3 0 -18 18 -33 40 -40 57
-42 43 -3 -20 l33 -53 42 49 c24 27 43 52 43 57 0 15 -71 127 -80 127 -5 0
-23 -21 -40 -46z"/>
<path d="M1292 3320 c0 -14 2 -19 5 -12 2 6 2 18 0 25 -3 6 -5 1 -5 -13z"/>
<path d="M1282 3265 c0 -16 2 -22 5 -12 2 9 2 23 0 30 -3 6 -5 -1 -5 -18z"/>
<path d="M860 906 c0 -3 9 -10 20 -16 11 -6 20 -8 20 -6 0 3 -9 10 -20 16 -11
6 -20 8 -20 6z"/>
<path d="M1830 1399 c0 -5 5 -7 10 -4 6 3 10 8 10 11 0 2 -4 4 -10 4 -5 0 -10
-5 -10 -11z"/>
<path d="M1867 1403 c-4 -3 0 -15 9 -25 13 -14 20 -15 31 -7 15 13 18 33 4 24
-5 -3 -12 -1 -16 5 -7 12 -19 13 -28 3z"/>
<path d="M1830 1328 c0 -4 4 -8 9 -8 6 0 12 4 15 8 3 5 -1 9 -9 9 -8 0 -15 -4
-15 -9z"/>
<path d="M2078 1414 c-16 -8 -28 -17 -28 -19 0 -4 72 24 79 31 11 10 -27 2
-51 -12z"/>
<path d="M2205 1412 c-9 -8 -117 -32 -152 -34 -14 -1 -16 -20 -7 -55 8 -29 41
-34 156 -21 l98 12 -22 20 c-12 12 -35 31 -51 43 -15 11 -24 24 -19 27 5 3 28
-8 51 -25 25 -19 39 -25 35 -15 -3 9 -21 25 -39 36 -37 23 -38 23 -50 12z m20
-56 c17 -13 28 -26 25 -29 -3 -3 -44 -8 -91 -12 -76 -6 -87 -5 -93 10 -7 20 0
35 18 35 8 0 13 -8 12 -17 -1 -14 7 -18 32 -18 35 0 45 18 12 23 -17 3 -19 6
-9 18 17 21 60 17 94 -10z"/>
<path d="M2230 1213 l-65 -12 62 3 c70 4 81 -2 109 -69 28 -66 22 -209 -13
-303 -6 -15 -4 -15 9 -4 10 8 21 43 28 84 18 108 1 227 -42 284 l-23 30 -65
-13z"/>
<path d="M2160 543 l-75 -77 70 64 c39 35 77 70 85 77 8 7 10 13 4 13 -5 0
-43 -35 -84 -77z"/>
<path d="M2847 1213 c-4 -7 -14 -10 -22 -6 -8 3 -15 0 -15 -6 0 -6 5 -10 12
-8 6 1 14 -7 16 -17 3 -14 0 -17 -12 -13 -30 12 -16 -2 18 -18 38 -18 56 -14
56 13 0 13 -2 13 -14 -4 -17 -22 -23 -12 -28 41 -2 19 -6 25 -11 18z"/>
<path d="M2931 1164 c0 -11 3 -14 6 -6 3 7 2 16 -1 19 -3 4 -6 -2 -5 -13z"/>
<path d="M2818 893 c7 -3 16 -2 19 1 4 3 -2 6 -13 5 -11 0 -14 -3 -6 -6z"/>
<path d="M2780 880 c-8 -5 -12 -12 -9 -15 4 -3 12 1 19 10 14 17 11 19 -10 5z"/>
<path d="M2795 861 c-3 -5 -1 -12 4 -15 5 -3 11 1 15 9 6 16 -9 21 -19 6z"/>
<path d="M2730 831 c0 -5 5 -13 10 -16 6 -3 10 -2 10 4 0 5 -4 13 -10 16 -5 3
-10 2 -10 -4z"/>
<path d="M2774 784 c-15 -6 -22 -14 -17 -17 6 -4 19 0 29 8 11 7 31 11 46 8
14 -3 33 -1 41 3 24 13 -66 11 -99 -2z"/>
<path d="M2910 780 c13 -9 13 -11 0 -20 -8 -5 -10 -10 -4 -10 15 0 36 25 27
33 -3 4 -13 7 -22 7 -14 0 -14 -2 -1 -10z"/>
<path d="M524 741 c-3 -3 134 -49 155 -51 2 0 -4 9 -14 20 -9 10 -20 19 -24
18 -24 -3 -61 3 -58 10 5 8 -51 11 -59 3z"/>
<path d="M2830 4310 c-8 -5 -10 -10 -5 -10 6 0 17 5 25 10 8 5 11 10 5 10 -5
0 -17 -5 -25 -10z"/>
<path d="M3790 4116 c0 -3 28 -20 62 -38 88 -47 163 -119 230 -223 125 -191
219 -407 273 -625 13 -52 40 -149 60 -215 55 -183 93 -348 110 -480 18 -140
21 -360 5 -460 -11 -72 -39 -180 -44 -174 -2 2 2 38 10 79 7 41 13 118 12 170
l-1 95 -8 -120 c-9 -128 -37 -258 -66 -308 -26 -43 -61 -66 -115 -73 -47 -7
-48 -6 -48 20 0 18 10 36 29 52 74 62 143 204 181 368 18 81 21 114 15 185
-13 174 -36 319 -73 466 l-37 150 -6 -115 c-13 -219 -47 -389 -111 -553 -22
-56 -32 -95 -29 -122 3 -42 -15 -235 -26 -269 -3 -12 -1 -17 7 -14 14 4 15 12
29 173 7 81 18 137 45 215 45 134 85 334 93 462 3 54 10 95 14 91 12 -13 56
-237 70 -353 22 -194 -5 -372 -80 -525 -38 -76 -103 -165 -121 -165 -5 0 -12
20 -16 45 -3 25 -8 44 -10 42 -2 -2 3 -64 12 -138 18 -143 25 -494 11 -544 -6
-21 -5 -27 2 -20 21 21 35 210 23 310 -7 52 -12 121 -12 154 l0 60 57 12 c70
14 112 54 154 144 100 213 85 653 -36 1061 -19 65 -55 193 -79 284 -49 184
-75 260 -139 405 -90 205 -224 384 -339 451 -49 29 -108 51 -108 40z"/>
<path d="M3254 4094 c-18 -14 -18 -15 4 -4 12 6 22 13 22 15 0 8 -5 6 -26 -11z"/>
<path d="M2979 3896 c-46 -40 -95 -86 -109 -102 -14 -16 4 -2 40 31 36 33 88
79 115 103 28 23 47 42 44 42 -4 0 -44 -33 -90 -74z"/>
<path d="M3885 3598 c-29 -15 -85 -69 -97 -93 -6 -11 12 1 38 27 27 26 63 54
79 62 17 9 23 16 15 16 -8 0 -24 -6 -35 -12z"/>
<path d="M3986 3565 c34 -115 92 -456 82 -487 -2 -6 -21 20 -42 58 -21 38 -51
84 -67 102 -16 18 -27 37 -25 41 3 4 -13 18 -34 30 -22 12 -40 17 -40 12 0 -6
4 -11 8 -11 24 0 100 -97 153 -198 l61 -113 1 -172 1 -172 -40 -77 -39 -77
-24 20 c-24 19 -22 22 24 32 12 3 7 5 -13 6 -18 0 -50 10 -70 20 -65 33 -104
35 -178 11 -42 -14 -62 -25 -54 -30 10 -6 7 -12 -9 -21 -28 -18 -27 -33 1 -18
17 9 20 9 15 -2 -39 -91 -57 -137 -56 -149 0 -10 4 -8 12 6 17 30 71 74 91 74
17 0 75 -58 76 -75 0 -6 -9 -29 -20 -50 l-20 -40 24 27 c27 30 63 118 72 178
4 22 10 40 15 40 4 0 20 -16 34 -35 24 -31 25 -36 12 -50 -9 -8 -21 -32 -27
-52 -7 -21 -21 -52 -31 -69 -25 -41 -24 -52 2 -28 l22 19 -17 -33 c-14 -27
-20 -31 -32 -21 -9 7 -14 8 -14 1 0 -6 4 -12 10 -14 6 -2 6 -25 0 -68 -11 -66
-23 -85 -90 -133 l-25 -17 30 14 c81 38 199 184 260 321 39 88 86 269 86 334
0 250 -69 758 -117 856 -8 17 -12 21 -8 10z m-198 -1032 c-10 -2 -26 -2 -35 0
-10 3 -2 5 17 5 19 0 27 -2 18 -5z m271 -42 c-7 -23 -15 -41 -19 -41 -18 0
-17 16 3 51 27 47 32 44 16 -10z m-35 -93 c-13 -44 -57 -124 -103 -188 -40
-56 -46 -62 -49 -42 -4 28 61 162 98 202 14 15 24 33 22 39 -2 6 6 11 18 11
18 0 20 -4 14 -22z"/>
<path d="M3752 3473 c-15 -58 -74 -187 -91 -197 -5 -4 -31 -50 -56 -103 -75
-159 -164 -284 -294 -414 -65 -64 -111 -116 -104 -116 7 0 13 6 13 14 0 7 4
13 9 13 9 0 161 153 204 205 43 53 134 198 176 283 23 46 57 104 75 130 52 72
88 157 84 200 l-3 37 -13 -52z"/>
<path d="M3789 3376 c26 -27 74 -34 116 -16 15 6 8 9 -28 9 -26 1 -62 8 -80
17 l-32 17 24 -27z"/>
<path d="M3665 3319 c-4 -6 -5 -12 -2 -15 2 -3 7 2 10 11 7 17 1 20 -8 4z"/>
<path d="M3455 3179 c-70 -98 -215 -234 -335 -316 -54 -37 -233 -127 -290
-147 -41 -14 -41 -14 -24 5 9 10 25 19 35 19 10 0 27 14 39 30 21 30 16 41 -9
18 -26 -24 0 14 73 107 91 117 89 115 83 115 -3 0 -42 -48 -87 -106 -45 -58
-146 -171 -224 -250 -97 -98 -135 -143 -121 -142 11 1 34 -2 52 -6 l32 -7 -16
31 c-14 29 -14 33 1 48 20 21 26 14 29 -36 l2 -42 40 1 c23 1 30 4 17 6 -25 5
-36 23 -45 70 -6 31 3 50 17 36 15 -15 91 0 122 24 47 35 84 29 107 -19 12
-26 24 -38 38 -38 18 0 19 -2 9 -15 -40 -49 86 39 151 105 41 42 85 96 64 78
-20 -17 -25 -16 -97 14 l-77 32 89 60 c49 34 132 101 185 149 52 49 95 85 95
80 0 -10 -87 -179 -112 -218 l-20 -30 22 25 c34 39 209 370 195 370 -2 0 -20
-23 -40 -51z m-341 -530 c-15 -16 -29 -27 -31 -25 -2 2 -1 22 3 44 6 41 7 41
31 25 l24 -16 -27 -28z"/>
<path d="M1921 2834 c0 -11 3 -14 6 -6 3 7 2 16 -1 19 -3 4 -6 -2 -5 -13z"/>
<path d="M4122 2805 c0 -16 2 -22 5 -12 2 9 2 23 0 30 -3 6 -5 -1 -5 -18z"/>
<path d="M3239 2783 c-13 -16 -12 -17 4 -4 16 13 21 21 13 21 -2 0 -10 -8 -17
-17z"/>
<path d="M2005 2710 c10 -11 20 -20 23 -20 3 0 -3 9 -13 20 -10 11 -20 20 -23
20 -3 0 3 -9 13 -20z"/>
<path d="M1815 2620 c-14 -27 -23 -50 -20 -50 2 0 16 23 30 50 14 28 23 50 20
50 -2 0 -16 -22 -30 -50z"/>
<path d="M2070 2666 c0 -9 102 -58 108 -52 3 3 -12 13 -34 22 -21 9 -47 20
-56 25 -10 6 -18 7 -18 5z"/>
<path d="M2030 2625 c13 -14 26 -25 28 -25 3 0 -5 11 -18 25 -13 14 -26 25
-28 25 -3 0 5 -11 18 -25z"/>
<path d="M3124 2604 c-18 -14 -18 -15 4 -4 12 6 22 13 22 15 0 8 -5 6 -26 -11z"/>
<path d="M2190 2606 c0 -2 9 -6 20 -9 11 -3 18 -1 14 4 -5 9 -34 13 -34 5z"/>
<path d="M2093 2566 c15 -14 33 -26 39 -26 13 0 14 0 -32 29 l-35 23 28 -26z"/>
<path d="M3045 2556 c-10 -7 -20 -22 -21 -32 -1 -11 -5 -30 -9 -44 l-7 -25 16
22 c17 22 49 93 43 93 -2 0 -12 -6 -22 -14z"/>
<path d="M2040 2554 c0 -8 102 -55 112 -52 6 2 -17 16 -51 30 -33 15 -61 25
-61 22z"/>
<path d="M2348 2553 c7 -3 16 -2 19 1 4 3 -2 6 -13 5 -11 0 -14 -3 -6 -6z"/>
<path d="M2388 2543 c7 -3 16 -2 19 1 4 3 -2 6 -13 5 -11 0 -14 -3 -6 -6z"/>
<path d="M2428 2533 c7 -3 16 -2 19 1 4 3 -2 6 -13 5 -11 0 -14 -3 -6 -6z"/>
<path d="M2488 2523 c7 -3 16 -2 19 1 4 3 -2 6 -13 5 -11 0 -14 -3 -6 -6z"/>
<path d="M0 2514 c0 -5 35 -17 78 -28 42 -10 95 -27 117 -38 l40 -19 -25 20
c-46 38 -210 88 -210 65z"/>
<path d="M1734 2473 c-15 -27 -34 -59 -42 -73 l-14 -25 18 22 c22 27 77 123
71 123 -3 0 -18 -21 -33 -47z"/>
<path d="M2175 2493 c10 -11 106 -38 185 -53 25 -5 83 -9 129 -9 l83 -1 -5
-27 -6 -28 11 26 c10 24 18 28 92 37 44 6 84 8 88 6 5 -3 8 0 8 6 0 7 -16 8
-52 3 -29 -4 -116 -8 -193 -7 -131 0 -237 16 -330 50 -13 5 -17 4 -10 -3z"/>
<path d="M2828 2473 c7 -3 16 -2 19 1 4 3 -2 6 -13 5 -11 0 -14 -3 -6 -6z"/>
<path d="M2778 2463 c6 -2 18 -2 25 0 6 3 1 5 -13 5 -14 0 -19 -2 -12 -5z"/>
<path d="M2350 2337 c-87 -75 -186 -178 -222 -232 -11 -16 16 8 60 55 43 47
119 122 168 167 49 46 87 83 84 83 -3 0 -43 -33 -90 -73z"/>
<path d="M1718 2283 c7 -3 16 -2 19 1 4 3 -2 6 -13 5 -11 0 -14 -3 -6 -6z"/>
<path d="M252 2269 c-35 -4 -85 -15 -111 -24 -57 -19 -141 -70 -141 -86 0 -7
9 -5 22 5 68 50 146 76 254 88 154 16 170 11 266 -78 44 -41 98 -87 121 -102
33 -22 37 -28 21 -31 -10 -2 -23 -7 -29 -11 -5 -4 -30 -11 -55 -15 -53 -9
-193 -58 -227 -80 -18 -12 -31 -14 -61 -6 -42 11 -213 31 -267 31 -75 0 -21
-18 74 -24 54 -4 127 -13 162 -20 60 -13 65 -12 111 11 83 41 189 73 286 85
96 12 114 8 214 -43 10 -5 28 -9 40 -9 14 1 0 9 -32 20 -125 45 -258 125 -376
227 l-81 70 -64 0 c-35 1 -93 -3 -127 -8z"/>
<path d="M4190 2150 c-6 -11 -8 -20 -6 -20 3 0 10 9 16 20 6 11 8 20 6 20 -3
0 -10 -9 -16 -20z"/>
<path d="M1330 2110 c-12 -8 -11 -10 8 -10 12 0 22 5 22 10 0 13 -11 13 -30 0z"/>
<path d="M1485 2099 c28 -5 58 -7 68 -5 9 2 15 0 11 -5 -3 -5 4 -9 14 -9 11 0
22 7 26 15 4 13 -8 15 -82 14 -83 -1 -85 -2 -37 -10z"/>
<path d="M195 1844 l-50 -25 80 6 c44 4 89 9 99 12 18 5 18 6 -5 19 -34 19
-67 16 -124 -12z m90 7 c-11 -4 -36 -11 -55 -14 l-35 -6 30 14 c17 8 41 14 55
14 22 0 23 -1 5 -8z"/>
<path d="M2657 1779 c6 -8 26 -22 45 -32 l33 -19 -25 21 c-14 12 -34 27 -45
33 -17 9 -18 9 -8 -3z"/>
<path d="M4172 1683 c-13 -52 -26 -102 -29 -110 -4 -10 -2 -14 4 -10 6 4 19
39 28 78 21 83 26 79 51 -41 19 -93 24 -205 11 -260 -7 -31 -6 -33 5 -15 28
43 10 263 -35 411 l-12 41 -23 -94z"/>
<path d="M4097 1668 c-25 -40 -55 -83 -67 -95 -15 -16 -17 -23 -7 -23 8 0 30
24 49 53 36 54 81 137 75 137 -2 0 -24 -33 -50 -72z"/>
<path d="M4090 1539 c-136 -20 -350 -74 -350 -89 0 -42 109 -360 123 -360 6 0
0 72 -9 120 -4 19 -8 41 -10 49 -6 29 38 117 72 144 19 16 34 24 34 17 0 -7 8
-2 18 10 12 15 23 20 32 15 8 -5 27 -9 44 -10 17 -1 41 -7 54 -13 20 -11 23
-18 22 -38 -1 -3 13 -18 31 -35 17 -16 28 -29 24 -29 -4 0 -1 -7 6 -16 8 -10
20 -29 27 -43 7 -14 10 -18 7 -7 -3 10 -18 81 -33 157 -15 76 -29 138 -32 138
-3 -1 -30 -5 -60 -10z"/>
<path d="M4153 1074 c-3 -8 -3 -50 1 -92 8 -94 50 -188 124 -281 29 -35 61
-78 73 -97 24 -39 34 -42 50 -15 7 10 20 16 29 14 9 -3 34 3 55 11 57 24 81
21 102 -14 11 -19 25 -30 40 -30 13 0 32 -13 49 -35 23 -31 25 -39 16 -60 -7
-14 -16 -25 -22 -25 -5 0 -10 -10 -10 -22 0 -21 2 -20 21 10 19 29 49 44 49
24 0 -12 -72 -146 -87 -161 -22 -22 -137 -27 -167 -7 -14 9 -36 16 -48 16 -22
0 -23 -4 -23 -74 0 -48 -5 -79 -14 -90 -13 -16 -19 -12 -70 38 -31 31 -61 56
-66 56 -14 0 116 -130 147 -146 15 -8 37 -14 48 -14 12 0 56 -10 97 -22 53
-15 77 -27 81 -40 4 -17 19 -18 188 -18 l184 0 0 28 c0 15 -10 65 -23 112 -19
72 -32 97 -86 168 -35 46 -72 87 -81 92 -9 5 -36 35 -60 67 -63 84 -102 123
-121 123 -9 0 -24 11 -33 25 -10 15 -26 25 -40 25 -49 0 -212 200 -309 380
-38 70 -72 99 -38 31 12 -23 17 -41 11 -41 -5 0 -10 5 -10 12 0 9 -3 9 -12 0
-7 -7 -12 -31 -11 -55 l2 -42 -10 40 c-6 22 -8 59 -6 83 4 41 -8 58 -20 26z
m673 -741 c4 -13 2 -29 -4 -35 -12 -12 -29 22 -38 77 l-5 30 20 -24 c12 -13
24 -35 27 -48z"/>
<path d="M1460 1020 c-9 -6 -10 -10 -3 -10 6 0 15 5 18 10 8 12 4 12 -15 0z"/>
<path d="M3851 933 c-33 -68 -115 -176 -170 -223 -25 -22 -40 -40 -32 -40 34
0 241 254 241 297 0 26 -17 12 -39 -34z"/>
<path d="M1665 910 c-3 -5 -3 -15 1 -21 4 -8 9 -7 15 2 7 11 9 11 9 1 0 -7 5
-10 10 -7 6 3 10 1 10 -5 0 -6 4 -8 10 -5 5 3 21 -2 35 -11 14 -9 25 -13 25
-10 0 7 -90 66 -101 66 -4 0 -11 -4 -14 -10z"/>
<path d="M1680 865 c0 -5 5 -17 10 -25 5 -8 10 -10 10 -5 0 6 -5 17 -10 25 -5
8 -10 11 -10 5z"/>
<path d="M3730 808 c-80 -75 -133 -105 -217 -124 -41 -9 -72 -18 -69 -21 2 -3
31 1 63 8 32 7 66 12 75 11 16 -1 138 98 187 152 39 41 21 30 -39 -26z"/>
<path d="M3093 753 c-7 -2 -13 -9 -13 -15 0 -7 4 -7 13 0 6 5 21 12 32 15 l20
5 -20 0 c-11 0 -26 -2 -32 -5z"/>
<path d="M3010 747 c0 -3 17 -17 38 -33 30 -23 33 -24 17 -5 -19 22 -55 46
-55 38z"/>
<path d="M3167 729 c12 -12 24 -21 27 -18 2 2 -8 13 -22 23 l-27 19 22 -24z"/>
<path d="M1764 667 c45 -29 136 -111 141 -128 9 -29 -2 -52 -33 -70 -15 -8
-42 -42 -60 -77 -40 -74 -36 -81 7 -12 43 69 71 96 82 79 6 -10 10 -5 15 19 9
43 20 48 40 18 12 -20 14 -37 9 -75 -6 -42 -4 -52 15 -71 26 -26 37 -20 45 30
6 36 3 44 -38 97 -75 96 -198 204 -231 202 -6 0 -3 -6 8 -12z m249 -268 c-10
-39 -33 -6 -33 46 0 19 2 18 19 -4 10 -13 16 -32 14 -42z m-13 -39 c0 -5 -2
-10 -4 -10 -3 0 -8 5 -11 10 -3 6 -1 10 4 10 6 0 11 -4 11 -10z"/>
<path d="M2787 663 c7 -17 21 -16 38 1 11 11 9 13 -14 12 -18 -1 -27 -5 -24
-13z"/>
<path d="M2881 663 c7 -12 15 -20 18 -17 3 2 -3 12 -13 22 -17 16 -18 16 -5
-5z"/>
<path d="M1699 634 c-21 -24 -22 -26 -3 -16 25 13 50 42 37 42 -5 0 -20 -12
-34 -26z"/>
<path d="M1976 637 c3 -10 9 -15 12 -12 3 3 0 11 -7 18 -10 9 -11 8 -5 -6z"/>
<path d="M4263 576 c50 -71 64 -124 48 -181 -9 -33 -8 -35 6 -23 21 17 12 157
-10 170 -9 4 -28 28 -44 53 -15 25 -32 45 -36 45 -5 0 12 -29 36 -64z"/>
<path d="M1539 482 c-31 -27 -81 -66 -110 -87 -30 -21 -56 -40 -58 -42 -2 -2
-2 -6 2 -9 7 -7 158 109 201 155 42 44 30 38 -35 -17z"/>
<path d="M4110 453 c57 -9 91 -26 119 -59 17 -19 36 -34 42 -34 16 0 -66 71
-100 87 -14 7 -39 12 -56 11 -26 -1 -27 -1 -5 -5z"/>
<path d="M195 429 c-164 -19 -177 -23 -186 -47 -6 -15 -5 -21 1 -17 6 3 10 1
10 -4 0 -6 4 -11 10 -11 5 0 7 8 4 18 -4 12 -3 13 3 4 8 -10 17 -9 46 3 69 29
61 15 -11 -20 -40 -19 -72 -39 -72 -45 0 -14 4 -13 70 20 33 17 62 30 66 30 3
0 -9 -19 -28 -42 -67 -83 -108 -152 -108 -183 0 -28 2 -27 29 21 65 119 147
216 215 254 28 17 44 29 36 29 -8 -1 -46 -5 -85 -10z m20 -18 c-12 -12 -65
-26 -65 -17 0 3 15 10 33 15 43 12 42 12 32 2z"/>
<path d="M4589 423 l-27 -4 22 -41 c32 -60 46 -60 46 1 0 28 -3 50 -7 50 -5
-1 -20 -4 -34 -6z"/>
<path d="M2817 399 c7 -7 15 -10 18 -7 3 3 -2 9 -12 12 -14 6 -15 5 -6 -5z"/>
<path d="M2905 400 c-3 -5 -1 -10 4 -10 6 0 11 5 11 10 0 6 -2 10 -4 10 -3 0
-8 -4 -11 -10z"/>
<path d="M4022 374 c10 -10 20 -15 24 -12 3 4 -5 12 -18 18 -22 12 -22 12 -6
-6z"/>
<path d="M4550 370 c0 -13 5 -18 15 -14 12 5 13 10 4 20 -15 19 -19 18 -19 -6z"/>
<path d="M3710 359 c-13 -9 -12 -10 3 -5 12 4 21 -1 27 -17 10 -22 10 -22 7 2
-2 28 -16 35 -37 20z"/>
<path d="M3653 324 l-28 -25 33 22 c17 13 32 24 32 26 0 8 -11 1 -37 -23z"/>
<path d="M4104 326 c11 -9 24 -16 30 -16 12 0 7 5 -24 19 -24 11 -24 11 -6 -3z"/>
<path d="M1257 269 c-29 -34 -34 -45 -14 -32 6 4 22 6 33 5 15 -2 23 4 27 17
3 14 1 19 -6 14 -6 -4 -8 0 -4 10 10 26 -6 20 -36 -14z"/>
<path d="M4184 275 c11 -8 24 -15 30 -15 5 0 1 7 -10 15 -10 8 -23 14 -29 14
-5 0 -1 -6 9 -14z"/>
<path d="M2440 220 c-11 -8 -7 -9 15 -4 37 8 45 14 19 14 -10 0 -26 -5 -34
-10z"/>
<path d="M3811 225 c0 -5 6 -21 14 -35 8 -14 14 -20 14 -15 0 6 -6 21 -14 35
-8 14 -14 21 -14 15z"/>
<path d="M3854 105 c18 -77 28 -105 36 -105 13 0 13 -3 -6 61 -17 59 -41 95
-30 44z"/>
</g>
</svg>
